<?xml version="1.0" standalone="no"?><!DOCTYPE svg PUBLIC "-//W3C//DTD SVG 1.1//EN" "http://www.w3.org/Graphics/SVG/1.1/DTD/svg11.dtd"><svg t="1597394134399" class="icon" viewBox="0 0 1024 1024" version="1.1" xmlns="http://www.w3.org/2000/svg" p-id="4744" xmlns:xlink="http://www.w3.org/1999/xlink" width="16" height="16"><defs><style type="text/css"></style></defs><path d="M697.9 492c95 0 171.9-78.9 171.9-176.1 0-97.3-77-176.1-171.9-176.1-95 0-171.9 78.9-171.9 176.1-0.1 97.3 76.9 176.1 171.9 176.1z m150.7 54.2c-104.6 0-146.4 118.3-146.4 118.3s-55.8-118.3-153.3-118.3c-97.6 0-111.4 96.8-111.4 96.8v241.3h522.6V621.5s-7-75.3-111.5-75.3z m-560.4-94c77.8 0 140.8-64.6 140.8-144.3s-63.1-144.2-140.8-144.2c-77.8 0-140.8 64.6-140.8 144.2-0.1 79.7 63 144.3 140.8 144.3z m125.2 31.7c-88.1 0-123.4 96.9-123.4 96.9s-47-96.9-129.2-96.9-96.9 79.3-96.9 79.3v210.6h298.6s-1.4-62.4-1.4-126.6c0-27.7 12.3-54 23.6-73.9 26.6-46.7 84.4-78 84.4-78s-31.4-11.4-55.7-11.4z" p-id="4745" fill="#ffffff"></path></svg>