<?xml version="1.0" standalone="no"?><!DOCTYPE svg PUBLIC "-//W3C//DTD SVG 1.1//EN" "http://www.w3.org/Graphics/SVG/1.1/DTD/svg11.dtd"><svg t="1597887997641" class="icon" viewBox="0 0 1024 1024" version="1.1" xmlns="http://www.w3.org/2000/svg" p-id="6467" xmlns:xlink="http://www.w3.org/1999/xlink" width="16" height="16"><defs><style type="text/css"></style></defs><path d="M759.2 572c0-23.6-10.4-49.2-42.8-49.2-34 0-44.4 27.4-44.4 51 0 28.6-23.2 51.8-51.8 51.8h-217c-28.6 0-51.8-23.2-51.8-51.8 0-23.6-7.2-51-43.6-51-34.6 0-42.8 25.6-42.8 49.2 0 77.2 62.6 139.8 139.8 139.8h214.8c77 0 139.6-62.6 139.6-139.8z m264.6-151l-39.4 517c-2 27-24.6 47.8-51.6 47.8H91.4c-27 0-49.6-20.8-51.6-47.8L0.2 421c-1.2-17 2.2-34 10.2-49l73.8-140.6c4-7.4 12.6-11.2 20.8-9 8 2 13.6 9.4 13.8 17.4l1 137.4c0.2 10 8.2 17.8 18 17.8H886c10 0 18-8 18-17.8l1-137.4c0-8.2 5.6-15.4 13.4-17.4 8.2-2.2 17 1.6 21 9l73.8 140.6c8.4 15.2 11.8 32 10.6 49z m-210-348.6c0-19-15.4-34.4-34.4-34.4H244.2c-19 0-34.4 15.4-34.4 34.4v49.4h604V72.4zM851.6 338H172V217c0-21.4 17.4-38.6 38.8-38.6H813c21.4 0 38.8 17.4 38.8 38.6v121z" p-id="6468"></path></svg>