<?xml version="1.0" standalone="no"?><!DOCTYPE svg PUBLIC "-//W3C//DTD SVG 1.1//EN" "http://www.w3.org/Graphics/SVG/1.1/DTD/svg11.dtd"><svg t="1597888099018" class="icon" viewBox="0 0 1024 1024" version="1.1" xmlns="http://www.w3.org/2000/svg" p-id="9370" xmlns:xlink="http://www.w3.org/1999/xlink" width="16" height="16"><defs><style type="text/css"></style></defs><path d="M893.44 120.832c-18.944 0-31.744 12.8-31.744 31.744v737.792c0 31.744-31.744 63.488-63.488 63.488H238.592c-38.4 0-82.432-31.744-82.432-63.488v-70.144c0-31.744 38.4-50.688 76.288-50.688h534.016c18.944 0 31.744-12.8 31.744-31.744V114.688C798.208 44.544 747.52 0 671.232 0H238.592C168.448 0 98.816 38.4 98.816 114.688v801.28c6.144 57.344 63.488 101.888 120.832 108.032h578.56c70.144 0 126.976-57.344 126.976-120.832V152.576c0-12.8-12.288-31.744-31.744-31.744z m-120.832 712.192H251.392c-18.944 0-31.744 12.8-31.744 31.744s12.8 31.744 31.744 31.744H773.12c18.944 0 31.744-12.8 31.744-31.744-0.512-18.944-12.8-31.744-32.256-31.744z" p-id="9371"></path></svg>